# 3ds Max Wavefront OBJ Exporter v0.97b - (c)2007 guruware
# File Created: 25.05.2018 15:26:32

mtllib fish.mtl

#
# object default
#

v  -0.1153 0.7707 -3.3357
v  0.1102 0.7721 -3.3340
v  -0.0006 0.3393 -3.9557
v  0.1102 0.5519 -3.3340
v  -0.1153 0.5510 -3.3357
v  0.1098 0.5379 -3.4459
v  0.1098 0.6950 -3.4459
v  0.2953 0.4935 -3.5297
v  0.2953 0.6271 -3.5297
v  1.8107 0.1444 -4.1292
v  -0.2968 0.4939 -3.5260
v  -0.2968 0.6298 -3.5260
v  -1.8119 0.1444 -4.1292
v  0.7176 0.5753 0.0237
v  0.6725 0.5126 0.9431
v  -0.0006 0.5005 0.9457
v  -0.0006 0.5052 -0.0063
v  0.6750 0.5804 -1.0037
v  -0.0006 0.5052 -1.0048
v  -0.6738 0.5126 0.9431
v  -0.7189 0.5753 0.0237
v  -0.6763 0.5804 -1.0037
v  -0.0006 1.8656 -1.0048
v  -0.6744 1.7900 -1.0048
v  -0.6631 1.9569 -0.0074
v  -0.0006 2.0424 -0.0085
v  0.6731 1.7900 -1.0048
v  0.6618 1.9569 -0.0074
v  -0.6257 2.0857 0.9459
v  -0.0006 2.1758 0.9461
v  0.6244 2.0857 0.9459
v  0.7596 1.1846 -1.0037
v  0.7837 1.2544 0.0237
v  0.7511 1.3992 0.9431
v  -0.7524 1.3992 0.9431
v  -0.7850 1.2544 0.0237
v  -0.7609 1.1846 -1.0037
v  -0.4877 1.4432 -1.9854
v  -0.5475 0.9992 -1.9872
v  -0.4877 0.5563 -1.9854
v  -0.2765 1.0762 -2.9033
v  -0.2931 0.7929 -2.9482
v  -0.2765 0.5353 -2.9034
v  0.4864 0.5563 -1.9854
v  0.5463 0.9992 -1.9872
v  0.4864 1.4432 -1.9854
v  0.2752 0.5353 -2.9033
v  0.2918 0.7929 -2.9482
v  0.2752 1.0762 -2.9033
v  -0.0006 1.4971 -1.9872
v  -0.0006 1.0807 -2.9482
v  -0.0006 0.5014 -1.9872
v  -0.0006 0.5052 -2.9482
v  -0.7356 1.3268 1.5657
v  -0.6194 2.0977 1.5901
v  -0.6739 0.5826 1.5657
v  -0.6013 0.6107 2.1803
v  -0.6760 1.3374 2.1803
v  -0.5995 2.0654 2.1812
v  0.6182 2.0977 1.5901
v  0.7343 1.3268 1.5657
v  0.5982 2.0654 2.1812
v  0.6747 1.3374 2.1803
v  0.6726 0.5826 1.5657
v  0.6000 0.6107 2.1803
v  -0.0006 2.1916 1.5910
v  -0.0006 2.1567 2.1812
v  -0.0006 0.5062 1.5892
v  -0.0006 0.5198 2.1812
v  0.4623 0.6877 2.6914
v  -0.0006 0.6180 2.6914
v  -0.4636 0.6877 2.6914
v  0.3135 0.7746 3.1570
v  -0.0006 0.7291 3.1578
v  -0.3148 0.7746 3.1570
v  -0.4636 1.8121 2.6914
v  -0.0006 1.8818 2.6914
v  0.4623 1.8121 2.6914
v  -0.3148 1.5413 3.1570
v  -0.0006 1.5875 3.1578
v  0.3135 1.5413 3.1570
v  0.5202 1.2496 2.6906
v  0.3645 1.1487 3.1359
v  -0.5215 1.2496 2.6906
v  -0.3658 1.1487 3.1359
v  1.1212 0.5650 1.3096
v  1.1212 1.0750 1.3096
v  1.1212 1.0750 0.9496
v  1.1722 1.0300 0.3496
v  1.1722 0.5650 0.3496
v  1.1212 0.5650 0.9496
v  -1.1225 1.0750 0.9496
v  -1.1225 1.0750 1.3096
v  -1.1225 0.5650 1.3096
v  -1.1735 0.5650 0.3496
v  -1.1735 1.0300 0.3496
v  -1.1225 0.5650 0.9496
v  1.5565 0.5898 0.4024
v  1.5060 0.5898 0.9424
v  1.5060 0.5898 1.2664
v  1.5565 1.0083 0.4024
v  1.5060 1.0488 0.9424
v  1.5060 1.0488 1.2664
v  -1.5069 0.5898 0.9577
v  -1.5574 0.5898 0.4177
v  -1.5069 0.5898 1.2817
v  -1.5574 1.0083 0.4177
v  -1.5069 1.0488 0.9577
v  -1.5069 1.0488 1.2817
v  2.0043 0.6343 1.2121
v  2.0043 1.0015 1.2121
v  2.0043 1.0015 0.9529
v  2.0447 0.9691 0.5209
v  2.0447 0.6343 0.5209
v  2.0043 0.6343 0.9529
v  -2.0052 1.0015 0.9651
v  -2.0052 1.0015 1.2243
v  -2.0052 0.6343 1.2243
v  -2.0456 0.6343 0.5331
v  -2.0456 0.9691 0.5331
v  -2.0052 0.6343 0.9651
v  -2.4142 0.7591 0.9434
v  -2.4263 0.7591 0.8138
v  -2.4142 0.7591 1.0212
v  -2.4263 0.8595 0.8138
v  -2.4142 0.8692 0.9434
v  -2.4142 0.8692 1.0212
v  2.4254 0.7591 0.8016
v  2.4133 0.7591 0.9312
v  2.4133 0.7591 1.0089
v  2.4254 0.8595 0.8016
v  2.4133 0.8692 0.9312
v  2.4133 0.8692 1.0089
v  -0.3366 1.0329 3.1929
v  -0.0006 1.0500 3.1929
v  -0.0006 1.0812 3.5929
v  -0.1070 1.0812 3.5929
v  0.3354 1.0329 3.1929
v  0.1058 1.0812 3.5929
v  0.2094 1.3974 3.3929
v  -0.0006 1.3974 3.3929
v  -0.0006 1.1492 3.5929
v  0.1058 1.1492 3.5929
v  -0.2106 1.3974 3.3929
v  -0.1070 1.1492 3.5929
v  -0.1406 1.0313 3.5929
v  -0.0006 1.0313 3.5929
v  0.1394 1.0313 3.5929
v  -0.0006 0.8439 3.3929
v  0.2094 0.8439 3.3929
v  0.1394 1.0103 3.5929
v  -0.0006 1.0103 3.5929
v  -0.2106 0.8439 3.3929
v  -0.1406 1.0103 3.5929
# 154 vertices

vn -0.0009 0.8208 -0.5713
vn 0.0013 -0.9463 0.3234
vn 0.0000 0.0000 -0.0000
vn 0.7761 -0.6261 0.0758
vn -0.0326 0.8230 -0.5671
vn 1.0000 -0.0000 -0.0032
vn 1.0000 0.0000 -0.0032
vn 0.4117 -0.0000 0.9113
vn 0.4117 0.0000 0.9113
vn 0.0379 0.8157 -0.5773
vn -0.0534 -0.9265 0.3725
vn -0.0632 -0.9236 0.3782
vn 0.0329 0.8175 -0.5751
vn 0.3679 0.0000 0.9299
vn -0.0342 -0.9477 0.3173
vn -0.0323 0.8176 -0.5749
vn -0.7235 0.0000 0.6903
vn -0.3699 0.0000 0.9291
vn -0.0329 0.8174 -0.5751
vn 0.0634 -0.9244 0.3762
vn 0.0177 -0.9976 -0.0671
vn 0.0972 -0.9952 -0.0049
vn 0.0974 -0.9952 -0.0090
vn 0.1106 -0.9939 0.0001
vn -0.0179 -0.9998 -0.0050
vn -0.0994 -0.9931 -0.0628
vn -0.0970 -0.9953 0.0001
vn -0.1106 -0.9938 -0.0095
vn -0.1100 0.9805 -0.1628
vn -0.1264 0.9767 -0.1734
vn 0.1098 0.9787 -0.1737
vn 0.1266 0.9786 -0.1623
vn -0.1272 0.9836 -0.1279
vn -0.1413 0.9804 -0.1370
vn 0.1271 0.9824 -0.1373
vn 0.1415 0.9817 -0.1271
vn 0.9899 0.1414 -0.0125
vn 0.9849 0.1694 -0.0347
vn 0.9902 -0.1386 -0.0138
vn 0.9944 -0.0968 -0.0418
vn 0.9850 0.1717 0.0154
vn 0.9834 0.1814 0.0064
vn -0.9833 0.1813 0.0141
vn -0.9852 0.1713 0.0080
vn -0.9853 0.1702 -0.0173
vn -0.9894 0.1413 -0.0329
vn -0.9952 -0.0968 -0.0168
vn -0.9895 -0.1385 -0.0418
vn -0.9630 0.1372 -0.2318
vn -0.9635 0.1308 -0.2337
vn -0.9732 -0.1362 -0.1854
vn -0.9740 -0.1323 -0.1839
vn -0.9537 0.1296 -0.2712
vn -0.9564 0.0995 -0.2746
vn -0.9649 -0.1312 -0.2273
vn -0.9701 -0.1009 -0.2209
vn 0.9735 -0.1363 -0.1837
vn 0.9736 -0.1322 -0.1863
vn 0.9624 0.1371 -0.2346
vn 0.9644 0.1309 -0.2299
vn 0.9667 -0.1314 -0.2194
vn 0.9668 -0.1029 -0.2339
vn 0.9514 0.1293 -0.2796
vn 0.9607 0.0974 -0.2600
vn 0.1045 0.9312 -0.3492
vn 0.1043 0.9312 -0.3493
vn -0.1045 0.9312 -0.3493
vn -0.1043 0.9312 -0.3492
vn 0.1027 0.9153 -0.3895
vn 0.0794 0.9147 -0.3963
vn -0.1024 0.9128 -0.3954
vn -0.0777 0.9195 -0.3854
vn -0.1106 -0.9939 0.0031
vn -0.1120 -0.9937 0.0038
vn 0.1106 -0.9939 0.0038
vn 0.1120 -0.9937 0.0028
vn -0.1120 -0.9937 -0.0030
vn -0.1093 -0.9940 -0.0039
vn 0.1120 -0.9937 -0.0039
vn 0.1090 -0.9940 -0.0023
vn 0.0047 -0.9929 -0.1189
vn 0.1218 -0.9889 -0.0848
vn -0.1213 -0.9893 -0.0812
vn -0.0002 0.7809 -0.6246
vn -0.1106 0.7918 -0.6007
vn 0.1106 0.7914 -0.6012
vn 0.9048 -0.0000 -0.4259
vn 0.8957 0.1202 -0.4281
vn 0.9252 -0.1221 -0.3593
vn -0.9089 0.0000 -0.4171
vn -0.9286 -0.1208 -0.3508
vn -0.8998 0.1191 -0.4198
vn -0.9823 0.1810 0.0475
vn -0.9888 0.1488 0.0069
vn -0.9893 -0.0820 0.1206
vn -0.9900 -0.1017 0.0978
vn -0.9850 0.1455 0.0930
vn -0.9938 0.1044 0.0393
vn 0.9834 0.1814 0.0062
vn 0.9881 0.1475 0.0437
vn 0.9882 0.1476 0.0414
vn 0.9901 0.1039 0.0943
vn 0.9918 -0.0822 0.0976
vn 0.9874 -0.1014 0.1212
vn -0.1427 0.9896 -0.0172
vn -0.1498 0.9884 -0.0242
vn 0.1427 0.9895 -0.0242
vn 0.1499 0.9886 -0.0171
vn -0.1497 0.9870 0.0590
vn -0.1505 0.9869 0.0582
vn 0.1497 0.9870 0.0582
vn 0.1505 0.9869 0.0590
vn 0.0183 -0.9936 0.1117
vn 0.1131 -0.9935 0.0087
vn -0.0180 -0.9998 0.0088
vn -0.1159 -0.9870 0.1109
vn 0.1146 -0.9917 0.0589
vn 0.1495 -0.9885 0.0228
vn -0.1136 -0.9933 0.0229
vn -0.1493 -0.9868 0.0627
vn 0.1472 -0.9715 0.1861
vn 0.1463 -0.9714 0.1868
vn -0.1472 -0.9713 0.1868
vn -0.1463 -0.9716 0.1858
vn 0.1451 -0.9632 0.2263
vn 0.1403 -0.9632 0.2295
vn -0.1450 -0.9625 0.2293
vn -0.1404 -0.9642 0.2250
vn -0.1331 0.8731 0.4690
vn -0.1314 0.8727 0.4703
vn 0.1330 0.8725 0.4702
vn 0.1316 0.8735 0.4688
vn -0.1264 0.8394 0.5287
vn -0.1249 0.8391 0.5295
vn 0.1264 0.8389 0.5294
vn 0.1249 0.8397 0.5284
vn 0.9482 0.0993 0.3019
vn 0.9478 0.0972 0.3037
vn 0.9570 -0.0983 0.2728
vn 0.9308 0.0953 0.3529
vn 0.9316 0.1023 0.3489
vn 0.9462 -0.0971 0.3088
vn 0.9406 -0.1102 0.3212
vn -0.9570 -0.0983 0.2728
vn -0.9475 0.0992 0.3040
vn -0.9487 0.0972 0.3010
vn -0.9427 -0.0967 0.3193
vn -0.9457 -0.1118 0.3053
vn -0.9327 0.0955 0.3477
vn -0.9290 0.1016 0.3560
vn 0.4942 -0.0410 0.8684
vn 0.5520 0.0000 0.8338
vn 0.5918 0.7987 0.1087
vn 0.6588 0.7523 -0.0000
vn 0.6568 0.7481 -0.0944
vn 0.5131 0.8581 -0.0207
vn 0.6208 -0.0604 -0.7816
vn 0.5826 0.0000 -0.8127
vn 0.1137 -0.9873 0.1110
vn -0.0392 -0.9992 -0.0000
vn 0.0253 -0.9974 -0.0668
vn 0.1159 -0.9932 0.0098
vn -0.6542 0.7491 0.1046
vn -0.5455 0.8381 -0.0000
vn -0.5314 -0.0440 0.8460
vn -0.4958 0.0000 0.8684
vn -0.5809 -0.0565 -0.8120
vn -0.6427 -0.0000 -0.7661
vn -0.5641 0.8185 -0.1088
vn -0.6588 0.7523 -0.0004
vn -0.0248 -0.9934 0.1117
vn -0.1160 -0.9932 -0.0000
vn -0.1167 -0.9912 -0.0618
vn 0.0213 -0.9998 -0.0018
vn 0.0635 -0.9980 0.0054
vn 0.0643 -0.9979 0.0060
vn 0.0642 -0.9979 -0.0000
vn 0.1362 0.0000 -0.9907
vn 0.0666 0.9954 -0.0690
vn 0.0658 0.9955 -0.0685
vn 0.0681 0.9977 -0.0000
vn 0.1114 0.0000 0.9938
vn -0.0641 -0.9979 0.0055
vn -0.0633 -0.9980 0.0059
vn -0.0642 -0.9979 -0.0000
vn -0.0686 0.9953 -0.0688
vn -0.0694 0.9953 -0.0682
vn -0.1747 -0.0000 -0.9846
vn -0.1747 0.0000 -0.9846
vn -0.0724 0.0000 0.9974
vn -0.0681 0.9977 -0.0000
vn 0.1085 0.0000 0.9941
vn 0.0944 0.9955 -0.0000
vn 0.0956 0.9933 -0.0656
vn 0.2358 0.0000 -0.9718
vn 0.0891 -0.9960 -0.0000
vn 0.0891 -0.9960 0.0000
vn 0.0889 -0.9960 0.0083
vn -0.0944 0.9955 -0.0000
vn -0.1145 0.0000 0.9934
vn -0.2300 0.0000 -0.9732
vn -0.2300 -0.0000 -0.9732
vn -0.0952 0.9933 -0.0656
vn -0.0891 -0.9960 -0.0000
vn -0.0889 -0.9960 0.0083
vn -0.2929 -0.9557 0.0274
vn -0.2917 -0.9565 -0.0000
vn -0.3054 0.9512 -0.0428
vn -0.5935 -0.0000 -0.8049
vn -0.5935 0.0000 -0.8049
vn -0.4448 0.0000 0.8956
vn -0.3078 0.9515 -0.0000
vn -0.9957 0.0000 0.0931
vn -1.0000 0.0000 -0.0000
vn 0.2929 -0.9557 0.0274
vn 0.2917 -0.9565 0.0000
vn 0.2917 -0.9565 -0.0000
vn 0.5935 0.0000 -0.8049
vn 0.3054 0.9513 -0.0428
vn 0.3054 0.9512 -0.0428
vn 0.3078 0.9515 -0.0000
vn 0.4448 0.0000 0.8956
vn 0.9957 0.0000 0.0931
vn 1.0000 0.0000 -0.0000
vn 0.0506 -0.9957 0.0775
vn 0.0000 -0.9928 0.1197
vn -0.0505 -0.9946 0.0909
vn 0.0000 -0.9970 0.0776
vn 0.0000 0.6273 0.7788
vn 0.8708 0.0318 0.4906
vn 0.8673 0.0000 0.4978
vn -0.8684 0.0286 0.4950
vn -0.8879 0.0000 0.4600
vn 0.0000 0.0000 1.0000
vn -0.0507 0.9983 0.0289
vn 0.0000 0.9989 0.0467
vn 0.0507 0.9976 0.0466
vn 0.0000 1.0000 0.0041
vn 0.0000 -0.7688 0.6395
vn 0.8903 -0.1325 0.4357
vn 0.9439 0.0000 0.3304
vn -0.8922 -0.1406 0.4292
vn -0.8980 0.0000 0.4400
vn 0.1153 0.7726 0.6244
vn 0.0000 0.8539 0.5205
vn -0.1153 0.7726 0.6244
vn -0.8174 0.0756 0.5711
vn -0.8963 0.0695 0.4379
vn -0.8911 -0.1357 0.4331
vn -0.9602 -0.1166 0.2540
vn -0.1303 -0.8909 0.4352
vn 0.0000 -0.9595 0.2818
vn 0.1303 -0.8909 0.4352
vn 0.9601 -0.1167 0.2540
vn 0.8911 -0.1357 0.4331
vn 0.8963 0.0695 0.4379
vn 0.8174 0.0756 0.5711
# 257 vertex normals

vt 0.9202 0.1657 0.0000
vt 0.9755 -0.0920 0.0000
vt 0.9202 0.0257 0.0000
vt 0.9921 -0.2077 0.0000
vt 0.5983 0.0035 0.0000
vt 0.5027 0.0035 0.0000
vt 0.6938 0.0035 0.0000
vt 0.6938 0.0035 0.0000
vt 0.7379 0.2915 0.0000
vt 0.7379 0.5465 0.0000
vt 0.6400 0.5306 0.0000
vt 0.6400 0.2915 0.0000
vt 0.7379 0.0364 0.0000
vt 0.6400 0.0523 0.0000
vt 0.5422 0.5147 0.0000
vt 0.5422 0.2915 0.0000
vt 0.5422 0.0683 0.0000
vt 0.6938 0.4193 0.0000
vt 0.6938 0.8351 0.0000
vt 0.5983 0.9242 0.0000
vt 0.5983 0.4638 0.0000
vt 0.3389 0.4159 0.0000
vt 0.3420 0.7306 0.0000
vt 0.2480 0.7883 0.0000
vt 0.2483 0.4808 0.0000
vt 0.6938 0.8351 0.0000
vt 0.6938 0.4193 0.0000
vt 0.7875 0.5991 0.0000
vt 0.7875 0.3005 0.0000
vt 0.7875 0.0019 0.0000
vt 0.8812 0.3632 0.0000
vt 0.8812 0.1817 0.0000
vt 0.8812 0.0002 0.0000
vt 0.8812 0.1817 0.0000
vt 0.8812 0.3632 0.0000
vt 0.8339 0.1152 0.0000
vt 0.8339 0.2915 0.0000
vt 0.8339 0.4677 0.0000
vt 0.9298 0.1940 0.0000
vt 0.9298 0.2915 0.0000
vt 0.9298 0.3889 0.0000
vt 0.9698 0.2539 0.0000
vt 0.9698 0.3291 0.0000
vt 0.1869 0.4483 0.0000
vt 0.1845 0.7938 0.0000
vt 0.1869 0.1149 0.0000
vt 0.1263 0.1275 0.0000
vt 0.1263 0.4531 0.0000
vt 0.1262 0.7793 0.0000
vt 0.4835 0.5147 0.0000
vt 0.4835 0.2915 0.0000
vt 0.4835 0.0683 0.0000
vt 0.4247 0.5147 0.0000
vt 0.4247 0.2915 0.0000
vt 0.4247 0.0683 0.0000
vt 0.4454 0.0035 0.0000
vt 0.3881 0.0035 0.0000
vt 0.3403 0.0703 0.0000
vt 0.2925 0.1372 0.0000
vt 0.3758 0.4589 0.0000
vt 0.3758 0.2915 0.0000
vt 0.3758 0.1241 0.0000
vt 0.3269 0.4031 0.0000
vt 0.3269 0.2915 0.0000
vt 0.3269 0.1799 0.0000
vt 0.0759 0.6658 0.0000
vt 0.0760 0.4137 0.0000
vt 0.0759 0.1620 0.0000
vt 0.0300 0.5444 0.0000
vt 0.0321 0.3685 0.0000
vt 0.0300 0.2009 0.0000
vt 0.4454 0.5084 0.0000
vt 0.4725 0.0421 0.0000
vt 0.4725 0.3450 0.0000
vt 0.5027 0.5084 0.0000
vt 0.5069 0.3450 0.0000
vt 0.5642 0.3183 0.0000
vt 0.5642 0.0421 0.0000
vt 0.5069 0.0421 0.0000
vt 0.5069 0.3450 0.0000
vt 0.5069 0.0421 0.0000
vt 0.5591 0.0568 0.0000
vt 0.5075 0.0568 0.0000
vt 0.4766 0.0568 0.0000
vt 0.5591 0.3054 0.0000
vt 0.5075 0.3295 0.0000
vt 0.4766 0.3295 0.0000
vt 0.5061 0.0568 0.0000
vt 0.5577 0.0568 0.0000
vt 0.4751 0.0568 0.0000
vt 0.5577 0.3054 0.0000
vt 0.5061 0.3295 0.0000
vt 0.4751 0.3295 0.0000
vt 0.4818 0.0833 0.0000
vt 0.4818 0.3014 0.0000
vt 0.5066 0.3014 0.0000
vt 0.5478 0.2821 0.0000
vt 0.5478 0.0833 0.0000
vt 0.5066 0.0833 0.0000
vt 0.5054 0.3014 0.0000
vt 0.4806 0.3014 0.0000
vt 0.4806 0.0833 0.0000
vt 0.5467 0.0833 0.0000
vt 0.5467 0.2821 0.0000
vt 0.5054 0.0833 0.0000
vt 0.5075 0.1574 0.0000
vt 0.5198 0.1574 0.0000
vt 0.5000 0.1574 0.0000
vt 0.5198 0.2170 0.0000
vt 0.5075 0.2228 0.0000
vt 0.5000 0.2228 0.0000
vt 0.5210 0.1574 0.0000
vt 0.5086 0.1574 0.0000
vt 0.5012 0.1574 0.0000
vt 0.5210 0.2170 0.0000
vt 0.5086 0.2228 0.0000
vt 0.5012 0.2228 0.0000
vt 0.2925 0.3201 0.0000
vt 0.2925 0.3302 0.0000
vt 0.2543 0.3487 0.0000
vt 0.3073 0.2245 0.0000
vt 0.3073 0.2915 0.0000
vt 0.2877 0.2915 0.0000
vt 0.2877 0.2575 0.0000
vt 0.3073 0.3584 0.0000
vt 0.2877 0.3254 0.0000
vt 0.2734 0.5366 0.0000
vt 0.2543 0.3891 0.0000
vt 0.2543 0.3191 0.0000
vt 0.2734 0.2078 0.0000
vt 0.2543 0.3066 0.0000
vt 0.2925 0.6420 0.0000
vt 0.2925 0.3896 0.0000
# 133 texture coords

o default
g default
usemtl GoldenFish_None_naranjaojo_png
s off
f 1/1/1 2/1/1 3/2/1 
f 4/3/2 5/3/2 3/2/2 
f 4/3/3 3/2/3 3/2/3 
f 4/3/4 3/2/4 6/3/4 
f 3/2/5 2/1/5 7/1/5 
f 3/2/3 7/1/3 3/2/3 
f 2/1/6 4/3/6 6/3/6 
f 2/1/7 6/3/7 7/1/7 
f 7/1/8 6/3/8 8/3/8 
f 7/1/9 8/3/9 9/1/9 
f 3/2/10 7/1/10 9/1/10 
f 3/2/3 9/1/3 3/2/3 
f 6/3/3 3/2/3 3/2/3 
f 6/3/11 3/2/11 8/3/11 
f 8/3/12 3/2/12 10/4/12 
f 3/2/13 9/1/13 10/4/13 
f 9/1/14 8/3/14 10/4/14 
f 3/2/15 5/3/15 11/3/15 
f 3/2/3 11/3/3 3/2/3 
f 1/1/3 3/2/3 3/2/3 
f 1/1/16 3/2/16 12/1/16 
f 5/3/17 1/1/17 12/1/17 
f 5/3/17 12/1/17 11/3/17 
f 11/3/18 12/1/18 13/4/18 
f 12/1/19 3/2/19 13/4/19 
f 3/2/20 11/3/20 13/4/20 
f 14/5/21 15/6/21 16/6/21 
f 14/5/22 16/6/22 17/5/22 
f 18/7/23 14/5/23 17/5/23 
f 18/7/24 17/5/24 19/8/24 
f 17/5/25 16/6/25 20/6/25 
f 17/5/26 20/6/26 21/5/26 
f 19/8/27 17/5/27 21/5/27 
f 19/8/28 21/5/28 22/8/28 
f 23/9/29 24/10/29 25/11/29 
f 23/9/30 25/11/30 26/12/30 
f 27/13/31 23/9/31 26/12/31 
f 27/13/32 26/12/32 28/14/32 
f 26/12/33 25/11/33 29/15/33 
f 26/12/34 29/15/34 30/16/34 
f 28/14/35 26/12/35 30/16/35 
f 28/14/36 30/16/36 31/17/36 
f 32/18/37 27/19/37 28/20/37 
f 32/18/38 28/20/38 33/21/38 
f 18/7/39 32/18/39 33/21/39 
f 18/7/40 33/21/40 14/5/40 
f 33/22/41 28/23/41 31/24/41 
f 33/22/42 31/24/42 34/25/42 
f 35/25/43 29/24/43 25/23/43 
f 35/25/44 25/23/44 36/22/44 
f 36/21/45 25/20/45 24/26/45 
f 36/21/46 24/26/46 37/27/46 
f 21/5/47 36/21/47 37/27/47 
f 21/5/48 37/27/48 22/8/48 
f 37/27/49 24/26/49 38/28/49 
f 37/27/50 38/28/50 39/29/50 
f 22/8/51 37/27/51 39/29/51 
f 22/8/52 39/29/52 40/30/52 
f 39/29/53 38/28/53 41/31/53 
f 39/29/54 41/31/54 42/32/54 
f 40/30/55 39/29/55 42/32/55 
f 40/30/56 42/32/56 43/33/56 
f 32/18/57 18/7/57 44/30/57 
f 32/18/58 44/30/58 45/29/58 
f 27/19/59 32/18/59 45/29/59 
f 27/19/60 45/29/60 46/28/60 
f 45/29/61 44/30/61 47/33/61 
f 45/29/62 47/33/62 48/34/62 
f 46/28/63 45/29/63 48/34/63 
f 46/28/64 48/34/64 49/35/64 
f 23/9/65 27/13/65 46/36/65 
f 23/9/66 46/36/66 50/37/66 
f 24/10/67 23/9/67 50/37/67 
f 24/10/68 50/37/68 38/38/68 
f 50/37/69 46/36/69 49/39/69 
f 50/37/70 49/39/70 51/40/70 
f 38/38/71 50/37/71 51/40/71 
f 38/38/72 51/40/72 41/41/72 
f 19/8/73 22/8/73 40/30/73 
f 19/8/74 40/30/74 52/30/74 
f 18/7/75 19/8/75 52/30/75 
f 18/7/76 52/30/76 44/30/76 
f 52/30/77 40/30/77 43/33/77 
f 52/30/78 43/33/78 53/33/78 
f 44/30/79 52/30/79 53/33/79 
f 44/30/80 53/33/80 47/33/80 
f 53/33/81 5/3/81 4/3/81 
f 47/33/82 53/33/82 4/3/82 
f 53/33/83 43/33/83 5/3/83 
f 51/40/84 2/42/84 1/43/84 
f 41/41/85 51/40/85 1/43/85 
f 51/40/86 49/39/86 2/42/86 
f 48/34/87 4/3/87 2/1/87 
f 49/35/88 48/34/88 2/1/88 
f 48/34/89 47/33/89 4/3/89 
f 42/32/90 1/1/90 5/3/90 
f 43/33/91 42/32/91 5/3/91 
f 42/32/92 41/31/92 1/1/92 
f 29/24/93 35/25/93 54/44/93 
f 29/24/94 54/44/94 55/45/94 
f 54/44/95 56/46/95 57/47/95 
f 54/44/96 57/47/96 58/48/96 
f 55/45/97 54/44/97 58/48/97 
f 55/45/98 58/48/98 59/49/98 
f 34/25/99 31/24/99 60/45/99 
f 34/25/100 60/45/100 61/44/100 
f 61/44/101 60/45/101 62/49/101 
f 61/44/102 62/49/102 63/48/102 
f 64/46/103 61/44/103 63/48/103 
f 64/46/104 63/48/104 65/47/104 
f 30/16/105 29/15/105 55/50/105 
f 30/16/106 55/50/106 66/51/106 
f 31/17/107 30/16/107 66/51/107 
f 31/17/108 66/51/108 60/52/108 
f 66/51/109 55/50/109 59/53/109 
f 66/51/110 59/53/110 67/54/110 
f 60/52/111 66/51/111 67/54/111 
f 60/52/112 67/54/112 62/55/112 
f 16/6/113 15/6/113 64/56/113 
f 16/6/114 64/56/114 68/56/114 
f 20/6/115 16/6/115 68/56/115 
f 20/6/116 68/56/116 56/56/116 
f 68/56/117 64/56/117 65/57/117 
f 68/56/118 65/57/118 69/57/118 
f 56/56/119 68/56/119 69/57/119 
f 56/56/120 69/57/120 57/57/120 
f 69/57/121 65/57/121 70/58/121 
f 69/57/122 70/58/122 71/58/122 
f 57/57/123 69/57/123 71/58/123 
f 57/57/124 71/58/124 72/58/124 
f 71/58/125 70/58/125 73/59/125 
f 71/58/126 73/59/126 74/59/126 
f 72/58/127 71/58/127 74/59/127 
f 72/58/128 74/59/128 75/59/128 
f 67/54/129 59/53/129 76/60/129 
f 67/54/130 76/60/130 77/61/130 
f 62/55/131 67/54/131 77/61/131 
f 62/55/132 77/61/132 78/62/132 
f 77/61/133 76/60/133 79/63/133 
f 77/61/134 79/63/134 80/64/134 
f 78/62/135 77/61/135 80/64/135 
f 78/62/136 80/64/136 81/65/136 
f 63/48/137 62/49/137 78/66/137 
f 63/48/138 78/66/138 82/67/138 
f 65/47/139 63/48/139 82/67/139 
f 65/47/139 82/67/139 70/68/139 
f 82/67/140 78/66/140 81/69/140 
f 82/67/141 81/69/141 83/70/141 
f 70/68/142 82/67/142 83/70/142 
f 70/68/143 83/70/143 73/71/143 
f 58/48/144 57/47/144 72/68/144 
f 58/48/144 72/68/144 84/67/144 
f 59/49/145 58/48/145 84/67/145 
f 59/49/146 84/67/146 76/66/146 
f 84/67/147 72/68/147 75/71/147 
f 84/67/148 75/71/148 85/70/148 
f 76/66/149 84/67/149 85/70/149 
f 76/66/150 85/70/150 79/69/150 
f 61/72/151 64/56/151 86/73/151 
f 61/72/152 86/73/152 87/74/152 
f 34/75/153 61/72/153 87/74/153 
f 34/75/154 87/74/154 88/76/154 
f 33/21/155 34/75/155 88/76/155 
f 33/21/156 88/76/156 89/77/156 
f 14/5/157 33/21/157 89/77/157 
f 14/5/158 89/77/158 90/78/158 
f 64/56/159 15/6/159 91/79/159 
f 64/56/160 91/79/160 86/73/160 
f 15/6/161 14/5/161 90/78/161 
f 15/6/162 90/78/162 91/79/162 
f 54/72/163 35/75/163 92/80/163 
f 54/72/164 92/80/164 93/74/164 
f 56/56/165 54/72/165 93/74/165 
f 56/56/166 93/74/166 94/73/166 
f 36/21/167 21/5/167 95/78/167 
f 36/21/168 95/78/168 96/77/168 
f 35/75/169 36/21/169 96/77/169 
f 35/75/170 96/77/170 92/80/170 
f 20/6/171 56/56/171 94/73/171 
f 20/6/172 94/73/172 97/81/172 
f 21/5/173 20/6/173 97/81/173 
f 21/5/174 97/81/174 95/78/174 
f 91/79/175 90/78/175 98/82/175 
f 91/79/176 98/82/176 99/83/176 
f 86/73/177 91/79/177 99/83/177 
f 86/73/177 99/83/177 100/84/177 
f 90/78/178 89/77/178 101/85/178 
f 90/78/178 101/85/178 98/82/178 
f 89/77/179 88/76/179 102/86/179 
f 89/77/180 102/86/180 101/85/180 
f 88/76/181 87/74/181 103/87/181 
f 88/76/181 103/87/181 102/86/181 
f 87/74/182 86/73/182 100/84/182 
f 87/74/182 100/84/182 103/87/182 
f 95/78/183 97/81/183 104/88/183 
f 95/78/184 104/88/184 105/89/184 
f 97/81/185 94/73/185 106/90/185 
f 97/81/185 106/90/185 104/88/185 
f 92/80/186 96/77/186 107/91/186 
f 92/80/187 107/91/187 108/92/187 
f 96/77/188 95/78/188 105/89/188 
f 96/77/189 105/89/189 107/91/189 
f 94/73/190 93/74/190 109/93/190 
f 94/73/190 109/93/190 106/90/190 
f 93/74/191 92/80/191 108/92/191 
f 93/74/191 108/92/191 109/93/191 
f 103/87/192 100/84/192 110/94/192 
f 103/87/192 110/94/192 111/95/192 
f 102/86/193 103/87/193 111/95/193 
f 102/86/193 111/95/193 112/96/193 
f 101/85/194 102/86/194 112/96/194 
f 101/85/194 112/96/194 113/97/194 
f 98/82/195 101/85/195 113/97/195 
f 98/82/195 113/97/195 114/98/195 
f 100/84/196 99/83/196 115/99/196 
f 100/84/197 115/99/197 110/94/197 
f 99/83/198 98/82/198 114/98/198 
f 99/83/198 114/98/198 115/99/198 
f 109/93/199 108/92/199 116/100/199 
f 109/93/199 116/100/199 117/101/199 
f 106/90/200 109/93/200 117/101/200 
f 106/90/200 117/101/200 118/102/200 
f 107/91/201 105/89/201 119/103/201 
f 107/91/202 119/103/202 120/104/202 
f 108/92/203 107/91/203 120/104/203 
f 108/92/203 120/104/203 116/100/203 
f 104/88/204 106/90/204 118/102/204 
f 104/88/204 118/102/204 121/105/204 
f 105/89/205 104/88/205 121/105/205 
f 105/89/205 121/105/205 119/103/205 
f 119/103/206 121/105/206 122/106/206 
f 119/103/206 122/106/206 123/107/206 
f 121/105/207 118/102/207 124/108/207 
f 121/105/207 124/108/207 122/106/207 
f 116/100/208 120/104/208 125/109/208 
f 116/100/208 125/109/208 126/110/208 
f 120/104/209 119/103/209 123/107/209 
f 120/104/210 123/107/210 125/109/210 
f 118/102/211 117/101/211 127/111/211 
f 118/102/211 127/111/211 124/108/211 
f 117/101/212 116/100/212 126/110/212 
f 117/101/212 126/110/212 127/111/212 
f 122/106/213 126/110/213 125/109/213 
f 122/106/213 125/109/213 123/107/213 
f 126/110/214 122/106/214 124/108/214 
f 126/110/214 124/108/214 127/111/214 
f 115/99/215 114/98/215 128/112/215 
f 115/99/215 128/112/215 129/113/215 
f 110/94/216 115/99/216 129/113/216 
f 110/94/217 129/113/217 130/114/217 
f 114/98/218 113/97/218 131/115/218 
f 114/98/218 131/115/218 128/112/218 
f 113/97/219 112/96/219 132/116/219 
f 113/97/220 132/116/220 131/115/220 
f 112/96/221 111/95/221 133/117/221 
f 112/96/221 133/117/221 132/116/221 
f 111/95/222 110/94/222 130/114/222 
f 111/95/222 130/114/222 133/117/222 
f 128/112/223 131/115/223 132/116/223 
f 128/112/223 132/116/223 129/113/223 
f 129/113/224 132/116/224 133/117/224 
f 129/113/224 133/117/224 130/114/224 
f 134/118/225 135/119/225 136/120/225 
f 134/118/226 136/120/226 137/120/226 
f 135/119/227 138/118/227 139/120/227 
f 135/119/228 139/120/228 136/120/228 
f 140/121/229 141/122/229 142/123/229 
f 140/121/229 142/123/229 143/124/229 
f 141/122/229 144/125/229 145/126/229 
f 141/122/229 145/126/229 142/123/229 
f 138/118/230 140/127/230 143/128/230 
f 138/118/231 143/128/231 139/120/231 
f 144/127/232 134/118/232 137/120/232 
f 144/127/233 137/120/233 145/128/233 
f 136/120/234 142/128/234 145/128/234 
f 136/120/234 145/128/234 137/120/234 
f 139/120/234 143/128/234 142/128/234 
f 139/120/234 142/128/234 136/120/234 
f 135/119/235 134/118/235 146/129/235 
f 135/119/236 146/129/236 147/129/236 
f 138/118/237 135/119/237 147/129/237 
f 138/118/238 147/129/238 148/129/238 
f 149/130/239 150/130/239 151/131/239 
f 149/130/239 151/131/239 152/131/239 
f 153/130/239 149/130/239 152/131/239 
f 153/130/239 152/131/239 154/131/239 
f 150/130/240 138/118/240 148/129/240 
f 150/130/241 148/129/241 151/131/241 
f 134/118/242 153/130/242 154/131/242 
f 134/118/243 154/131/243 146/129/243 
f 152/131/234 147/129/234 146/129/234 
f 152/131/234 146/129/234 154/131/234 
f 151/131/234 148/129/234 147/129/234 
f 151/131/234 147/129/234 152/131/234 
f 81/65/244 80/64/244 141/122/244 
f 81/65/245 141/122/245 140/121/245 
f 79/63/245 144/125/245 141/122/245 
f 79/63/246 141/122/246 80/64/246 
f 79/132/247 85/133/247 134/118/247 
f 79/132/248 134/118/248 144/127/248 
f 75/59/249 153/130/249 134/118/249 
f 75/59/250 134/118/250 85/133/250 
f 75/59/251 74/59/251 149/130/251 
f 75/59/252 149/130/252 153/130/252 
f 73/59/252 150/130/252 149/130/252 
f 73/59/253 149/130/253 74/59/253 
f 73/59/254 83/133/254 138/118/254 
f 73/59/255 138/118/255 150/130/255 
f 81/132/256 140/127/256 138/118/256 
f 81/132/257 138/118/257 83/133/257 
# 310 faces

